<svg width="48" height="45" viewBox="0 0 48 45" fill="none" xmlns="http://www.w3.org/2000/svg">
<g id="Android">
<g id="Android_2">
<path id="Oval" d="M24 44.5312C37.2548 44.5312 48 34.5626 48 22.2656C48 9.96866 37.2548 0 24 0C10.7452 0 0 9.96866 0 22.2656C0 34.5626 10.7452 44.5312 24 44.5312Z" fill="white"/>
<g id="Page-1">
<g id="Clip-2">
<path id="path-1" fill-rule="evenodd" clip-rule="evenodd" d="M27.7564 11.7788L28.0613 11.3629L28.3662 10.9529L29.0456 10.0313C29.1301 9.9176 29.0953 9.76499 28.9693 9.69018C28.8451 9.61388 28.6744 9.6453 28.5932 9.759L27.5559 11.1609L27.2444 11.5828C26.2585 11.2372 25.1599 11.0442 24 11.0442C22.8418 11.0442 21.7415 11.2372 20.7556 11.5828L20.4457 11.1609L20.1392 10.7465L19.4101 9.759C19.3256 9.6453 19.1566 9.61537 19.0307 9.69018C18.9064 9.76499 18.8716 9.9176 18.9544 10.0313L19.6338 10.9529L19.9387 11.3629L20.2452 11.7788C17.9304 12.7528 16.3645 14.5976 16.3645 16.7086H31.6355C31.6355 14.5976 30.0696 12.7528 27.7564 11.7788ZM19.9089 13.9991C19.9089 14.4075 20.2751 14.7382 20.7274 14.7382C21.1798 14.7382 21.546 14.4075 21.546 13.9991C21.546 13.5906 21.1798 13.2615 20.7274 13.2615C20.2751 13.2615 19.9089 13.5906 19.9089 13.9991ZM26.454 13.9991C26.454 14.4075 26.8202 14.7382 27.2726 14.7382C27.7249 14.7382 28.0911 14.4075 28.0911 13.9991C28.0911 13.5906 27.7249 13.2615 27.2726 13.2615C26.8202 13.2615 26.454 13.5906 26.454 13.9991ZM16.3645 17.6931H16.4822H31.6355V28.5282C31.6355 29.3885 30.8633 30.0887 29.9089 30.0887H28.6611C28.7042 30.2189 28.7291 30.3551 28.7291 30.4987V33.6182C28.7291 34.4336 27.995 35.0949 27.0903 35.0949C26.1872 35.0949 25.4548 34.4336 25.4548 33.6182V30.4987C25.4548 30.3551 25.478 30.2189 25.5195 30.0887H22.4805C22.522 30.2189 22.5468 30.3551 22.5468 30.4987V33.6182C22.5468 34.4336 21.8128 35.0949 20.9097 35.0949C20.0066 35.0949 19.2726 34.4336 19.2726 33.6182V30.4987C19.2726 30.3551 19.2958 30.2189 19.3389 30.0887H18.0928C17.1384 30.0887 16.3645 29.3885 16.3645 28.5282V17.6931ZM13.6371 17.6931C12.7324 17.6931 12 18.3544 12 19.1698V25.4911C12 26.3065 12.7324 26.9678 13.6371 26.9678C14.5402 26.9678 15.2726 26.3065 15.2726 25.4911V19.1698C15.2726 18.3544 14.5402 17.6931 13.6371 17.6931ZM32.7274 19.1698C32.7274 18.3544 33.4598 17.6931 34.3645 17.6931C35.2676 17.6931 36 18.3544 36 19.1698V25.4911C36 26.3065 35.2676 26.9678 34.3645 26.9678C33.4598 26.9678 32.7274 26.3065 32.7274 25.4911V19.1698Z" fill="#A4C639"/>
</g>
</g>
</g>
</g>
</svg>
