<svg width="48" height="48" viewBox="0 0 48 48" fill="none" xmlns="http://www.w3.org/2000/svg">
<path d="M24 46.5312C37.2548 46.5312 48 36.5626 48 24.2656C48 11.9687 37.2548 2 24 2C10.7452 2 0 11.9687 0 24.2656C0 36.5626 10.7452 46.5312 24 46.5312Z" fill="white"/>
<path fill-rule="evenodd" clip-rule="evenodd" d="M27.7564 13.7788L28.0613 13.3629L28.3662 12.9529L29.0456 12.0313C29.1301 11.9176 29.0953 11.765 28.9693 11.6902C28.8451 11.6139 28.6744 11.6453 28.5932 11.759L27.5559 13.1609L27.2444 13.5828C26.2585 13.2372 25.1599 13.0442 24 13.0442C22.8418 13.0442 21.7415 13.2372 20.7556 13.5828L20.4457 13.1609L20.1392 12.7465L19.4101 11.759C19.3256 11.6453 19.1566 11.6154 19.0307 11.6902C18.9064 11.765 18.8716 11.9176 18.9544 12.0313L19.6338 12.9529L19.9387 13.3629L20.2452 13.7788C17.9304 14.7528 16.3645 16.5976 16.3645 18.7086H31.6355C31.6355 16.5976 30.0696 14.7528 27.7564 13.7788ZM19.9089 15.9991C19.9089 16.4075 20.2751 16.7382 20.7274 16.7382C21.1798 16.7382 21.546 16.4075 21.546 15.9991C21.546 15.5906 21.1798 15.2615 20.7274 15.2615C20.2751 15.2615 19.9089 15.5906 19.9089 15.9991ZM26.454 15.9991C26.454 16.4075 26.8202 16.7382 27.2726 16.7382C27.7249 16.7382 28.0911 16.4075 28.0911 15.9991C28.0911 15.5906 27.7249 15.2615 27.2726 15.2615C26.8202 15.2615 26.454 15.5906 26.454 15.9991ZM16.3645 19.6931H16.4822H31.6355V30.5282C31.6355 31.3885 30.8633 32.0887 29.9089 32.0887H28.6611C28.7042 32.2189 28.7291 32.3551 28.7291 32.4987V35.6182C28.7291 36.4336 27.995 37.0949 27.0903 37.0949C26.1872 37.0949 25.4548 36.4336 25.4548 35.6182V32.4987C25.4548 32.3551 25.478 32.2189 25.5195 32.0887H22.4805C22.522 32.2189 22.5468 32.3551 22.5468 32.4987V35.6182C22.5468 36.4336 21.8128 37.0949 20.9097 37.0949C20.0066 37.0949 19.2726 36.4336 19.2726 35.6182V32.4987C19.2726 32.3551 19.2958 32.2189 19.3389 32.0887H18.0928C17.1384 32.0887 16.3645 31.3885 16.3645 30.5282V19.6931ZM13.6371 19.6931C12.7324 19.6931 12 20.3544 12 21.1698V27.4911C12 28.3065 12.7324 28.9678 13.6371 28.9678C14.5402 28.9678 15.2726 28.3065 15.2726 27.4911V21.1698C15.2726 20.3544 14.5402 19.6931 13.6371 19.6931ZM32.7274 21.1698C32.7274 20.3544 33.4598 19.6931 34.3645 19.6931C35.2676 19.6931 36 20.3544 36 21.1698V27.4911C36 28.3065 35.2676 28.9678 34.3645 28.9678C33.4598 28.9678 32.7274 28.3065 32.7274 27.4911V21.1698Z" fill="#A4C639"/>
<path fill-rule="evenodd" clip-rule="evenodd" d="M24 48C10.7452 48 0 37.2548 0 24C0 10.7452 10.7452 0 24 0C37.2548 0 48 10.7452 48 24C48 37.2548 37.2548 48 24 48ZM27.7564 12.6963L28.0613 12.248L28.3662 11.8061L29.0456 10.8127C29.1301 10.6901 29.0953 10.5256 28.9693 10.445C28.8451 10.3627 28.6744 10.3966 28.5932 10.5192L27.5559 12.0303L27.2444 12.4851C26.2585 12.1125 25.1599 11.9045 24 11.9045C22.8418 11.9045 21.7415 12.1125 20.7556 12.4851L20.4457 12.0303L20.1392 11.5836L19.4101 10.5192C19.3256 10.3966 19.1566 10.3644 19.0307 10.445C18.9064 10.5256 18.8716 10.6901 18.9544 10.8127L19.6338 11.8061L19.9387 12.248L20.2452 12.6963C17.9304 13.7462 16.3645 15.7346 16.3645 18.0102H31.6355C31.6355 15.7346 30.0696 13.7462 27.7564 12.6963ZM16.3645 19.0713H16.4822H31.6355V30.7505C31.6355 31.6777 30.8633 32.4325 29.9089 32.4325H28.6611C28.7042 32.5728 28.7291 32.7196 28.7291 32.8744V36.2368C28.7291 37.1158 27.995 37.8286 27.0903 37.8286C26.1872 37.8286 25.4548 37.1158 25.4548 36.2368V32.8744C25.4548 32.7196 25.478 32.5728 25.5195 32.4325H22.4805C22.522 32.5728 22.5468 32.7196 22.5468 32.8744V36.2368C22.5468 37.1158 21.8128 37.8286 20.9097 37.8286C20.0066 37.8286 19.2726 37.1158 19.2726 36.2368V32.8744C19.2726 32.7196 19.2958 32.5728 19.3389 32.4325H18.0928C17.1384 32.4325 16.3645 31.6777 16.3645 30.7505V19.0713ZM13.6371 19.0713C12.7324 19.0713 12 19.7841 12 20.663V27.4767C12 28.3556 12.7324 29.0684 13.6371 29.0684C14.5402 29.0684 15.2726 28.3556 15.2726 27.4767V20.663C15.2726 19.7841 14.5402 19.0713 13.6371 19.0713ZM32.7274 20.663C32.7274 19.7841 33.4598 19.0713 34.3645 19.0713C35.2676 19.0713 36 19.7841 36 20.663V27.4767C36 28.3556 35.2676 29.0684 34.3645 29.0684C33.4598 29.0684 32.7274 28.3556 32.7274 27.4767V20.663Z" fill="black"/>
<path d="M20.7274 15.8862C20.275 15.8862 19.9088 15.5298 19.9088 15.0896C19.9088 14.6493 20.275 14.2945 20.7274 14.2945C21.1797 14.2945 21.5459 14.6493 21.5459 15.0896C21.5459 15.5298 21.1797 15.8862 20.7274 15.8862V15.8862Z" fill="black"/>
<path d="M27.2725 15.8862C26.8202 15.8862 26.454 15.5298 26.454 15.0896C26.454 14.6493 26.8202 14.2945 27.2725 14.2945C27.7249 14.2945 28.0911 14.6493 28.0911 15.0896C28.0911 15.5298 27.7249 15.8862 27.2725 15.8862V15.8862Z" fill="black"/>
</svg>
