<svg width="48" height="45" viewBox="0 0 48 45" fill="none" xmlns="http://www.w3.org/2000/svg">
<g id="Apple">
<g id="Apple_2">
<path id="back" d="M0 22.2656C0 9.96866 10.7452 0 24 0C37.2548 0 48 9.96866 48 22.2656C48 34.5626 37.2548 44.5312 24 44.5312C10.7452 44.5312 0 34.5626 0 22.2656Z" fill="white"/>
<path id="Shape" fill-rule="evenodd" clip-rule="evenodd" d="M29.2669 8.90625C29.5182 10.4895 28.8235 12.0407 27.9072 13.1381C26.9268 14.3152 25.2369 15.2256 23.5996 15.1781C23.3007 13.6623 24.066 12.1004 24.9972 11.0505C26.0186 9.89179 27.7692 9.00281 29.2669 8.90625ZM34.1854 31.1919C35.0295 29.9918 35.3448 29.3864 36 28.0315C31.2343 26.3501 30.4707 20.0644 35.1871 17.6519C33.7485 15.9782 31.727 15.008 29.8187 15.008C28.4437 15.008 27.5016 15.3409 26.6452 15.6435C25.9315 15.8957 25.2772 16.1269 24.4815 16.1269C23.6216 16.1269 22.8601 15.8736 22.0628 15.6083C21.1866 15.3169 20.2672 15.0111 19.1262 15.0111C16.9848 15.0111 14.7054 16.225 13.2602 18.3003C11.2288 21.2231 11.5753 26.7179 14.8696 31.3988C16.0471 33.0741 17.6203 34.9563 19.678 34.9731C20.5318 34.981 21.1 34.7446 21.7148 34.4887C22.4186 34.1959 23.1834 33.8777 24.5078 33.8711C25.8399 33.8637 26.5927 34.1858 27.2871 34.483C27.8862 34.7393 28.4417 34.977 29.2883 34.9685C31.3476 34.9532 33.0079 32.8672 34.1854 31.1919Z" fill="#0B0B0A"/>
</g>
</g>
</svg>
