<svg width="48" height="48" viewBox="0 0 48 48" fill="none" xmlns="http://www.w3.org/2000/svg">
<g id="Github_white">
<g id="Github">
<path id="Fill-51" d="M24.0432 0.180176C10.8147 0.180176 0.0876465 11.0881 0.0876465 24.5447C0.0876465 35.3098 6.95165 44.4428 16.4699 47.6646C17.6672 47.8901 18.1067 47.136 18.1067 46.4925C18.1067 45.9115 18.0845 43.9921 18.0742 41.9562C11.4097 43.4301 10.0034 39.0815 10.0034 39.0815C8.9137 36.2652 7.34358 35.5164 7.34358 35.5164C5.17009 34.0042 7.50742 34.0352 7.50742 34.0352C9.91297 34.2067 11.1796 36.546 11.1796 36.546C13.3162 40.2709 16.7837 39.194 18.1507 38.5715C18.3657 36.9971 18.9866 35.9215 19.6716 35.3134C14.3508 34.6973 8.7574 32.6081 8.7574 23.2722C8.7574 20.6121 9.6932 18.4386 11.2256 16.7323C10.9769 16.1182 10.1569 13.6405 11.4577 10.2844C11.4577 10.2844 13.4693 9.62952 18.0472 12.7819C19.9581 12.242 22.0074 11.9713 24.0432 11.962C26.0791 11.9713 28.13 12.242 30.0444 12.7819C34.6167 9.62952 36.6256 10.2844 36.6256 10.2844C37.9295 13.6405 37.1091 16.1182 36.8604 16.7323C38.3964 18.4386 39.3259 20.6121 39.3259 23.2722C39.3259 32.6303 33.7218 34.6909 28.3874 35.2941C29.2467 36.0502 30.0123 37.5329 30.0123 39.8061C30.0123 43.0658 29.9845 45.6896 29.9845 46.4925C29.9845 47.1409 30.4157 47.9006 31.63 47.6613C41.1431 44.436 47.9984 35.3062 47.9984 24.5447C47.9984 11.0881 37.273 0.180176 24.0432 0.180176Z" fill="white"/>
<path id="Fill-52" d="M9.16085 35.1626C9.10809 35.284 8.92085 35.3199 8.75027 35.2368C8.57652 35.1573 8.47893 34.9923 8.53526 34.8709C8.58683 34.7462 8.77447 34.7119 8.94782 34.7946C9.12197 34.8745 9.22115 35.0411 9.16085 35.1626Z" fill="white"/>
<path id="Fill-53" d="M10.1312 36.263C10.0169 36.3707 9.79358 36.3207 9.64205 36.1504C9.48535 35.9806 9.456 35.7534 9.57183 35.6441C9.68965 35.5363 9.90624 35.5868 10.0633 35.7566C10.22 35.9285 10.2506 36.1541 10.1312 36.263Z" fill="white"/>
<path id="Fill-54" d="M11.0757 37.6664C10.929 37.7701 10.689 37.6729 10.5406 37.4562C10.3938 37.2396 10.3938 36.9797 10.5438 36.8756C10.6925 36.7715 10.929 36.8651 11.0793 37.0802C11.2257 37.3001 11.2257 37.5603 11.0757 37.6664Z" fill="white"/>
<path id="Fill-55" d="M12.3696 39.0219C12.2383 39.1692 11.9587 39.1297 11.754 38.9287C11.5445 38.7322 11.4862 38.4534 11.6179 38.3062C11.7508 38.1585 12.0321 38.2001 12.2383 38.3994C12.4462 38.5955 12.5097 38.8763 12.3696 39.0219Z" fill="white"/>
<path id="Fill-56" d="M14.1548 39.8095C14.0969 40.0004 13.8275 40.0871 13.5562 40.006C13.2852 39.9225 13.1079 39.699 13.1626 39.5061C13.219 39.314 13.4895 39.2237 13.7628 39.3104C14.0334 39.3935 14.2111 39.6154 14.1548 39.8095Z" fill="white"/>
<path id="Fill-57" d="M16.1152 39.9552C16.122 40.1561 15.8919 40.3228 15.6071 40.326C15.3207 40.3329 15.089 40.1703 15.0858 39.9726C15.0858 39.7696 15.3107 39.6046 15.5972 39.5998C15.882 39.5941 16.1152 39.7555 16.1152 39.9552Z" fill="white"/>
<path id="Fill-58" d="M17.9397 39.6394C17.9738 39.8355 17.7759 40.0368 17.493 40.0901C17.2149 40.1422 16.9575 40.0211 16.9222 39.8266C16.8877 39.6257 17.0892 39.4244 17.3669 39.3723C17.6501 39.3223 17.9036 39.4401 17.9397 39.6394Z" fill="white"/>
</g>
</g>
</svg>
