<svg width="96" height="98" viewBox="0 0 96 98" fill="none" xmlns="http://www.w3.org/2000/svg">
<g id="Twitter">
<g id="Twitter_2">
<path id="back" d="M0 48.0788C0 21.5691 21.4903 0.0787964 48 0.0787964C74.5097 0.0787964 96 21.5691 96 48.0788C96 74.5885 74.5097 96.0788 48 96.0788C21.4903 96.0788 0 74.5885 0 48.0788Z" fill="#55ACEE"/>
<path id="Shape" d="M46.5624 39.0938L46.6631 40.7547L44.9844 40.5513C38.8737 39.7717 33.5353 37.1278 29.0027 32.6874L26.7867 30.4842L26.216 32.1112C25.0073 35.7381 25.7795 39.5683 28.2976 42.1444C29.6406 43.5681 29.3384 43.7714 27.0218 42.924C26.216 42.6529 25.5109 42.4495 25.4437 42.5512C25.2087 42.7885 26.0145 45.873 26.6524 47.0933C27.5254 48.7881 29.3049 50.449 31.2522 51.432L32.8974 52.2116L30.95 52.2455C29.0698 52.2455 29.0027 52.2794 29.2041 52.9912C29.8756 55.1944 32.5281 57.5333 35.4827 58.5501L37.5643 59.262L35.7513 60.3466C33.0653 61.9059 29.9092 62.7872 26.7532 62.8549C25.2423 62.8888 24 63.0244 24 63.1261C24 63.4651 28.0962 65.3633 30.48 66.109C37.6315 68.3122 46.1259 67.3631 52.5052 63.6007C57.0378 60.9229 61.5704 55.6012 63.6857 50.449C64.8272 47.7034 65.9688 42.6868 65.9688 40.2801C65.9688 38.7209 66.0695 38.5176 67.9497 36.6533C69.0577 35.5686 70.0985 34.3822 70.2999 34.0433C70.6357 33.3992 70.6021 33.3992 68.8898 33.9755C66.0359 34.9924 65.633 34.8568 67.0432 33.3315C68.084 32.2468 69.3263 30.2808 69.3263 29.7046C69.3263 29.6029 68.8226 29.7724 68.2519 30.0774C67.6475 30.4164 66.3045 30.9248 65.2973 31.2299L63.4842 31.8061L61.839 30.6876C60.9325 30.0774 59.6567 29.3995 58.9852 29.1961C57.2728 28.7216 54.654 28.7894 53.1095 29.3317C48.9127 30.857 46.2602 34.789 46.5624 39.0938Z" fill="white"/>
</g>
</g>
</svg>
