<svg width="48" height="49" viewBox="0 0 48 49" fill="none" xmlns="http://www.w3.org/2000/svg">
<g id="Twitter">
<g id="Twitter_2">
<path id="back" d="M0 24.0394C0 10.7846 10.7452 0.0393982 24 0.0393982C37.2548 0.0393982 48 10.7846 48 24.0394C48 37.2942 37.2548 48.0394 24 48.0394C10.7452 48.0394 0 37.2942 0 24.0394Z" fill="#55ACEE"/>
<path id="Shape" d="M23.2812 19.5469L23.3316 20.3773L22.4922 20.2757C19.4369 19.8859 16.7677 18.5639 14.5013 16.3437L13.3934 15.2421L13.108 16.0556C12.5036 17.869 12.8897 19.7842 14.1488 21.0722C14.8203 21.784 14.6692 21.8857 13.5109 21.462C13.108 21.3264 12.7554 21.2247 12.7219 21.2756C12.6044 21.3942 13.0073 22.9365 13.3262 23.5466C13.7627 24.394 14.6524 25.2245 15.6261 25.716L16.4487 26.1058L15.475 26.1227C14.5349 26.1227 14.5013 26.1397 14.6021 26.4956C14.9378 27.5972 16.264 28.7666 17.7413 29.2751L18.7822 29.631L17.8756 30.1733C16.5326 30.9529 14.9546 31.3936 13.3766 31.4275C12.6211 31.4444 12 31.5122 12 31.5631C12 31.7325 14.0481 32.6816 15.24 33.0545C18.8157 34.1561 23.063 33.6816 26.2526 31.8003C28.5189 30.4614 30.7852 27.8006 31.8428 25.2245C32.4136 23.8517 32.9844 21.3434 32.9844 20.1401C32.9844 19.3605 33.0347 19.2588 33.9748 18.3266C34.5288 17.7843 35.0492 17.1911 35.15 17.0216C35.3178 16.6996 35.3011 16.6996 34.4449 16.9877C33.018 17.4962 32.8165 17.4284 33.5216 16.6657C34.042 16.1234 34.6631 15.1404 34.6631 14.8523C34.6631 14.8014 34.4113 14.8862 34.1259 15.0387C33.8238 15.2082 33.1523 15.4624 32.6486 15.6149L31.7421 15.9031L30.9195 15.3438C30.4663 15.0387 29.8283 14.6998 29.4926 14.5981C28.6364 14.3608 27.327 14.3947 26.5548 14.6659C24.4563 15.4285 23.1301 17.3945 23.2812 19.5469Z" fill="white"/>
</g>
</g>
</svg>
